<svg width="18" height="18" viewBox="0 0 18 18" fill="none" xmlns="http://www.w3.org/2000/svg">
<path fill-rule="evenodd" clip-rule="evenodd" d="M4.92444 4.92444C5.19903 4.64986 5.64421 4.64986 5.9188 4.92444L8.9372 7.94284L11.9556 4.92444C12.2302 4.64986 12.6754 4.64986 12.9499 4.92444C13.2245 5.19903 13.2245 5.64421 12.9499 5.9188L9.93155 8.9372L12.9499 11.9556C13.2245 12.2302 13.2245 12.6754 12.9499 12.9499C12.6754 13.2245 12.2302 13.2245 11.9556 12.9499L8.9372 9.93155L5.9188 12.9499C5.64421 13.2245 5.19903 13.2245 4.92444 12.9499C4.64986 12.6754 4.64986 12.2302 4.92444 11.9556L7.94284 8.9372L4.92444 5.9188C4.64986 5.64421 4.64986 5.19903 4.92444 4.92444Z" fill="#4F4F4F" stroke="#4F4F4F" stroke-width="2" stroke-linecap="round" stroke-linejoin="round"/>
</svg>
